<?xml version="1.0" encoding="UTF-8" standalone="no"?>
<svg width="240px" height="165px" viewBox="0 0 240 165" version="1.1" xmlns="http://www.w3.org/2000/svg" xmlns:xlink="http://www.w3.org/1999/xlink">
    <!-- Generator: Sketch 41.2 (35397) - http://www.bohemiancoding.com/sketch -->
    <title>gracias</title>
    <desc>Created with Sketch.</desc>
    <defs></defs>
    <g id="Symbols" stroke="none" stroke-width="1" fill="none" fill-rule="evenodd">
        <g id="gracias">
            <path d="M239.47701,128.379656 L161.872382,128.379656" id="Path-8-Copy-3" stroke="#00B2E2" stroke-dasharray="3" opacity="0.6"></path>
            <path d="M239.47701,119.379656 L161.872382,119.379656" id="Path-8-Copy-4" stroke="#69C9BA" stroke-dasharray="3" opacity="0.6"></path>
            <polyline id="Path-10-Copy" stroke="#00B2E2" stroke-dasharray="4" opacity="0.6" points="9.64257812 119.524414 65.9882812 48.6523438 91.4257813 117.457031 150.492188 2 174.703125 78.4140625 236.922852 20.1884766"></polyline>
            <polyline id="Path-10-Copy-2" stroke="#69C9BA" stroke-dasharray="4" opacity="0.6" points="2.65332031 158.080078 58.9882813 87.6523438 84.4257813 156.457031 143.492188 41 167.703125 117.414063 234.59375 54.8789063"></polyline>
            <ellipse id="Oval" fill="#29BFE7" opacity="0.6" cx="150.070175" cy="3.06467662" rx="3.07017544" ry="3.06467662"></ellipse>
            <ellipse id="Oval-Copy" fill="#29BFE7" opacity="0.6" cx="66.0701754" cy="49.0646766" rx="3.07017544" ry="3.06467662"></ellipse>
            <ellipse id="Oval-Copy-2" fill="#69C9BA" opacity="0.6" cx="84.0701754" cy="156.064677" rx="3.07017544" ry="3.06467662"></ellipse>
            <ellipse id="Oval-Copy-3" fill="#69C9BA" opacity="0.6" cx="59.0701754" cy="88.0646766" rx="3.07017544" ry="3.06467662"></ellipse>
            <path d="M52,82.5003586 C52,119.781503 82.2192137,150.000359 119.5,150.000359 C156.780786,150.000359 187,119.781503 187,82.5003586 C187,45.2195723 156.780786,15 119.5,15 C82.2191928,15.0000208 52,45.2195851 52,82.5003586 Z" id="Fill-1" fill="#343B43"></path>
            <g id="Page-1" transform="translate(37.000000, 11.000000)">
                <g id="Group-29" transform="translate(0.000000, 0.292883)">
                    <path d="M7.3094252,101.410371 L27.4628432,94.3873938" id="Stroke-4" stroke="#6CC049" stroke-width="2" stroke-linecap="round"></path>
                    <path d="M0.192842212,111.876847 L29.4329328,101.410448" id="Stroke-6" stroke="#6CC049" stroke-width="2" stroke-linecap="round"></path>
                    <path d="M11.5170318,116.599775 L31.6704498,109.576409" id="Stroke-8" stroke="#6CC049" stroke-width="2" stroke-linecap="round"></path>
                    <polygon id="Fill-12" fill="#00259A" points="26.344952 75.2440252 83.9004311 94.7909738 119.469277 45.1217709"></polygon>
                    <polygon id="Fill-14" fill="#00259A" points="26.344952 75.2440252 61.913027 25.5748223 119.469277 45.1217709"></polygon>
                    <rect id="Rectangle" fill="#E5F3FA" transform="translate(71.886608, 57.074596) rotate(-18.000000) translate(-71.886608, -57.074596) " x="31.9371646" y="10.5745955" width="79.8988861" height="93" rx="7"></rect>
                    <path d="M26.9445747,75.0498391 L26.3829577,75.2315008 L44.2174895,131.372531 L137.264724,101.27517 L119.430578,45.1341397 L118.816763,45.3326852 L119.025391,45.7373901 L84.1373692,95.4752629 L26.9980469,75.4336792 L26.9445747,75.0498391 Z" id="Combined-Shape" fill="#005CB8"></path>
                    <polygon id="Fill-19" fill="#00B3E3" points="95.1178502 36.444217 41.2045179 53.8834169 40.092871 50.384375 94.0062033 32.9451752"></polygon>
                    <polygon id="Fill-21" fill="#005CB8" points="75.3422919 28.1044709 36.9592525 40.5199241 35.8476056 37.0208822 74.230645 24.60504"></polygon>
                    <polygon id="Fill-23" fill="#00B3E3" points="97.7038168 44.5845458 43.7900991 62.0233567 42.6784522 58.5243148 96.5921699 41.085115"></polygon>
                    <polygon id="Fill-25" fill="#00B3E3" points="100.289475 52.7244857 46.3761428 70.1632966 45.2644959 66.6642547 99.1778282 49.2254438"></polygon>
                    <polygon id="Fill-27" fill="#00B3E3" points="102.875442 60.8644644 48.961724 78.3036643 47.8500771 74.8042334 101.763795 57.3654225"></polygon>
                </g>
                <g id="Group-36" transform="translate(108.312336, 68.360061)">
                    <path d="M48.3180173,24.4139463 C48.3180173,37.7881743 37.5758234,48.6275806 24.3123804,48.6275806 C11.0516357,48.6275806 0.306358165,37.7881743 0.306358165,24.4139463 C0.306358165,11.0397183 11.0516357,0.176585706 24.3123804,0.176585706 C37.5758234,0.176585706 48.3180173,11.0397183 48.3180173,24.4139463" id="Fill-30" fill="#00B3E3"></path>
                    <path d="M43.5043627,24.4139463 C43.5043627,35.1207188 34.9214773,43.7878098 24.3122648,43.7878098 C13.7049795,43.7878098 5.11515605,35.1207188 5.11515605,24.4139463 C5.11515605,13.7025063 13.7049795,5.03891592 24.3122648,5.03891592 C34.9214773,5.03891592 43.5043627,13.7025063 43.5043627,24.4139463" id="Fill-32" fill="#E8F2F9"></path>
                    <polygon id="Fill-34" fill="#6CC049" points="25.3696399 37.4336804 16.6221661 34.061049 18.2684365 29.7121398 22.8291182 31.4706067 31.2366223 11.0609552 35.4966505 12.8482049"></polygon>
                </g>
            </g>
        </g>
    </g>
</svg>