<?xml version="1.0" encoding="utf-8"?>
<!-- Generator: Adobe Illustrator 16.0.0, SVG Export Plug-In . SVG Version: 6.00 Build 0)  -->
<!DOCTYPE svg PUBLIC "-//W3C//DTD SVG 1.1//EN" "http://www.w3.org/Graphics/SVG/1.1/DTD/svg11.dtd">
<svg version="1.1" id="Capa_1" xmlns="http://www.w3.org/2000/svg" xmlns:xlink="http://www.w3.org/1999/xlink" x="0px" y="0px"
	 width="34px" height="34px" viewBox="0 0 34 34" enable-background="new 0 0 34 34" xml:space="preserve">
<path fill="#FFFFFF" d="M16.897,2c-8.285,0-15,6.716-15,15c0,8.282,6.715,15,15,15c8.284,0,15-6.718,15-15
	C31.897,8.716,25.182,2,16.897,2z M19.773,14.314l-0.181,2.178H17.2v7.565h-3.023v-7.565h-1.613v-2.178h1.613v-1.463
	c0-0.646,0.017-1.641,0.519-2.256C15.226,9.943,15.952,9.5,17.2,9.5c2.034,0,2.892,0.271,2.892,0.271L19.688,12
	c0,0-0.672-0.182-1.299-0.182c-0.628,0-1.189,0.209-1.189,0.794v1.702H19.773z"/>
</svg>
