<?xml version="1.0" encoding="utf-8"?>
<!-- Generator: Adobe Illustrator 16.0.0, SVG Export Plug-In . SVG Version: 6.00 Build 0)  -->
<!DOCTYPE svg PUBLIC "-//W3C//DTD SVG 1.1//EN" "http://www.w3.org/Graphics/SVG/1.1/DTD/svg11.dtd">
<svg version="1.1" id="Capa_1" xmlns="http://www.w3.org/2000/svg" xmlns:xlink="http://www.w3.org/1999/xlink" x="0px" y="0px"
	 width="34px" height="34px" viewBox="0 0 34 34" enable-background="new 0 0 34 34" xml:space="preserve">
<path fill="#FFFFFF" d="M17,2C8.715,2,2,8.716,2,17c0,8.282,6.715,15,15,15c8.286,0,15-6.718,15-15C32,8.716,25.285,2,17,2z
	 M24.123,13.125c0.006,0.159,0.012,0.317,0.012,0.477c0,4.855-3.697,10.456-10.457,10.456c-2.076,0-4.008-0.61-5.635-1.651
	c0.288,0.033,0.58,0.051,0.875,0.051c1.724,0,3.308-0.587,4.565-1.573c-1.608-0.029-2.965-1.092-3.432-2.552
	c0.223,0.042,0.455,0.066,0.691,0.066c0.335,0,0.66-0.046,0.969-0.129c-1.681-0.337-2.949-1.824-2.949-3.604v-0.047
	c0.496,0.275,1.063,0.441,1.665,0.459c-0.986-0.657-1.635-1.784-1.635-3.059c0-0.672,0.182-1.304,0.498-1.849
	c1.813,2.226,4.521,3.688,7.575,3.841c-0.063-0.269-0.095-0.549-0.095-0.838c0-2.028,1.646-3.674,3.675-3.674
	c1.057,0,2.014,0.445,2.684,1.162c0.838-0.166,1.623-0.473,2.334-0.894c-0.275,0.857-0.857,1.579-1.617,2.033
	c0.742-0.089,1.453-0.285,2.111-0.578C25.463,11.959,24.84,12.607,24.123,13.125z"/>
</svg>
