<?xml version="1.0" encoding="UTF-8" standalone="no"?>
<svg width="263px" height="106px" viewBox="0 0 263 106" version="1.1" xmlns="http://www.w3.org/2000/svg" xmlns:xlink="http://www.w3.org/1999/xlink">
    <!-- Generator: Sketch 41.2 (35397) - http://www.bohemiancoding.com/sketch -->
    <title>logo</title>
    <desc>Created with Sketch.</desc>
    <defs></defs>
    <g id="Desktop" stroke="none" stroke-width="1" fill="none" fill-rule="evenodd">
        <g id="container-copy" transform="translate(-448.000000, -135.000000)">
            <g id="logo" transform="translate(448.000000, 135.000000)">
                <g id="Layer_1" transform="translate(-0.000000, 0.000000)">
                    <path d="M15.9890339,57.160341 L41.0826461,57.160341 L41.0826461,71.4628524 L15.9890339,71.4628524 L15.9890339,104.599282 L0,104.599282 L0,26.533996 L49.025291,26.533996 C49.1612293,27.2475465 49.2582002,27.9679463 49.3157744,28.692006 C49.3531222,29.2760355 49.3738711,29.9926108 49.3738711,30.8458739 C49.3738711,33.1778501 48.69331,38.1441725 47.332188,39.6933006 C45.971066,41.2424287 43.4978077,42.0252768 39.9207127,42.0252768 L15.9890339,42.0252768 L15.9890339,57.160341 Z" id="Shape" fill="#394049"></path>
                    <path d="M70.9609342,33.6831807 C71.0327502,35.640493 70.2499827,37.5325711 68.8155071,38.8690319 C65.8837562,41.5255601 61.4102003,41.5255601 58.4784494,38.8690319 C57.070968,37.5177998 56.3084998,35.6309938 56.3828195,33.6831807 C56.3164264,31.72337 57.0766385,29.8256189 58.4784494,28.4517668 C61.3836254,25.7274214 65.9103311,25.7274214 68.8155071,28.4517668 C70.2444321,29.8110206 71.0248448,31.7139805 70.9609342,33.6831807 L70.9609342,33.6831807 Z M71.5419009,104.470878 C70.8642937,104.694873 70.155892,104.812255 69.4421212,104.818811 C68.352117,104.896129 67.1846506,104.934788 65.9397219,104.934788 C62.8965629,104.934788 60.4260711,104.294151 58.5282465,103.012875 C56.6304219,101.7316 55.6745934,99.14972 55.6607608,95.267235 L55.6607608,49.4892576 C56.2723565,49.331779 56.897692,49.2332982 57.5281538,49.1951718 C58.6917666,49.0760556 59.8608414,49.0179869 61.0305532,49.0212055 C62.283555,49.022242 63.5337867,49.1387135 64.7653392,49.369138 C65.9718361,49.5887221 67.122754,50.0448553 68.1515452,50.7111634 C69.1994586,51.4135586 70.0449712,52.3774517 70.6040546,53.5070497 C71.226519,54.713768 71.5377511,56.2863677 71.5377511,58.2248488 L71.5419009,104.470878 Z" id="Shape" fill="#394049"></path>
                    <path d="M101.125556,104.59514 L85.136522,104.59514 L85.136522,49.5058258 L86.5391416,49.2738708 C87.0808894,49.1886515 87.6265761,49.1305899 88.1741479,49.0999045 C88.7966123,49.0612454 89.5352699,49.0419158 90.390121,49.0419158 C92.623819,48.9885764 94.8399792,49.4477065 96.8678998,50.3839412 C98.6965617,51.2758634 99.8446626,52.8484631 100.312202,55.1017403 C101.634593,53.3151345 103.656911,51.658313 106.379155,50.1312759 C109.101399,48.6042388 112.797454,47.8476236 117.46732,47.8614305 C123.000336,47.8614305 127.085085,48.9480292 129.721567,51.1212267 C132.382866,53.3148549 134.201098,56.360591 134.867273,59.7408405 C135.273909,61.6590505 135.527838,63.6063707 135.626679,65.564568 C135.742872,67.6604471 135.800969,69.7190478 135.800969,71.74037 L135.800969,104.59514 L119.928129,104.59514 L119.928129,72.4403771 C119.928129,70.7310896 119.870032,69.1377796 119.753839,67.6604471 C119.678954,66.3518594 119.362405,65.0683566 118.820142,63.8746101 C118.297464,62.8095708 117.434654,61.9483632 116.367633,61.4266563 C115.238897,60.8440074 113.663371,60.552683 111.641053,60.552683 C108.761118,60.552683 106.290627,61.1546615 104.229578,62.3586184 C102.168529,63.5625753 101.138005,65.0578567 101.138005,66.8444626 L101.125556,104.59514 Z" id="Shape" fill="#394049"></path>
                    <path d="M167.749989,66.49653 L174.053477,56.2449471 C175.530793,53.8397946 177.086954,52.0338592 178.72196,50.8271409 C180.356966,49.6204226 182.653168,49.0184441 185.610565,49.0212055 C187.090049,49.0110562 188.563676,49.2076395 189.988564,49.6052351 C191.321347,49.9845712 192.627275,50.4522822 193.89764,51.0052492 L176.153257,77.5682396 L193.196331,104.379753 C190.858088,105.313664 188.36143,105.789004 185.842952,105.779767 C183.117941,105.779767 180.82174,105.365562 178.954347,104.537151 C177.086954,103.70874 175.374485,102.051919 173.816941,99.5666868 L166.820442,88.6399491 L157.24694,104.603424 L140.552447,104.603424 L158.29268,76.9924941 L141.950917,50.6614588 C143.195845,50.2748671 144.69391,49.8868947 146.445109,49.4975417 C148.111893,49.119056 149.815074,48.9232207 151.524418,48.9135121 C154.1692,48.9135121 156.250997,49.496161 157.76981,50.6614588 C159.396856,51.960885 160.729211,53.5900581 161.678886,55.4413887 L167.749989,66.49653 Z" id="Shape" fill="#394049"></path>
                    <path d="M220.647008,32.8092073 C221.824641,27.9214367 223.36997,23.129293 225.269843,18.4735595 C204.389335,24.0395293 182.27398,22.8075376 162.14366,14.9569559 L162.14366,14.9569559 C179.340529,26.7731726 199.77032,33.0073075 220.647008,32.8092073 L220.647008,32.8092073 Z" id="Shape" fill="#005DB4"></path>
                    <path d="M212.098498,7.47640692 L162.13951,14.9569559 C182.269831,22.8075376 204.385185,24.0395293 225.265693,18.4735595 C227.247224,13.6220969 229.605952,8.93279383 232.320289,4.44856567 L212.098498,7.47640692 Z" id="Shape" fill="#0F2A96"></path>
                    <path d="M235.681596,31.5251707 C230.710995,32.3303832 225.686551,32.7596169 220.651157,32.8092073 C215.783117,53.0760176 217.294516,74.3481601 224.979359,93.726391 L224.979359,93.726391 C221.822096,72.3841428 225.571422,50.593119 235.681596,31.5251707 L235.681596,31.5251707 Z" id="Shape" fill="#8CC8B9"></path>
                    <path d="M261.903944,0.0207102685 C251.09027,8.6152318 238.620247,14.8964686 225.269843,18.4735595 C223.36997,23.129293 221.824641,27.9214367 220.647008,32.8092073 C225.682401,32.7596169 230.706846,32.3303832 235.677447,31.5251707 C242.164385,19.3396 251.092906,8.6159517 261.908094,0.0207102685 L261.903944,0.0207102685 Z" id="Shape" fill="#4DB1E0"></path>
                    <path d="M232.316139,4.45270772 C229.601802,8.93693588 227.243075,13.6262389 225.261543,18.4777015 C238.615202,14.9004226 251.08817,8.61771568 261.903944,0.0207102685 L232.316139,4.45270772 Z" id="Shape" fill="#005DB4"></path>
                    <path d="M224.97521,93.726391 L225.074804,93.8506527 L243.566145,46.9253263 L251.114562,27.7517598 C246.076773,29.4125322 240.914856,30.6715286 235.677447,31.5168866 C225.565511,50.5872271 221.816134,72.381441 224.97521,93.726391 L224.97521,93.726391 Z" id="Shape" fill="#8ABF54"></path>
                    <path d="M261.908094,0.0207102685 C251.094405,8.61636884 242.167321,19.3399878 235.681596,31.5251707 C240.917834,30.6768926 246.078359,29.4151271 251.114562,27.7517598 L262.057485,0 L261.908094,0.0207102685 Z" id="Shape" fill="#8CC8B9"></path>
                </g>
            </g>
        </g>
    </g>
</svg>