<?xml version="1.0" encoding="UTF-8" standalone="no"?>
<svg width="315px" height="204px" viewBox="0 0 315 204" version="1.1" xmlns="http://www.w3.org/2000/svg" xmlns:xlink="http://www.w3.org/1999/xlink">
    <!-- Generator: Sketch 41.2 (35397) - http://www.bohemiancoding.com/sketch -->
    <title>textura</title>
    <desc>Created with Sketch.</desc>
    <defs>
        <polygon id="path-1" points="9.5846225 0 0.744366211 7.69864889 1.96371191 9.30253408 9.5846225 2.5662163 17.2055331 9.30253408 18.4248788 7.69864889"></polygon>
        <mask id="mask-2" maskContentUnits="userSpaceOnUse" maskUnits="objectBoundingBox" x="-1.2" y="-1.2" width="20.0805126" height="11.7025341">
            <rect x="-0.455633789" y="-1.2" width="20.0805126" height="11.7025341" fill="white"></rect>
            <use xlink:href="#path-1" fill="black"></use>
        </mask>
        <polygon id="path-3" points="9.5846225 0 0.744366211 7.69864889 1.96371191 9.30253408 9.5846225 2.5662163 17.2055331 9.30253408 18.4248788 7.69864889"></polygon>
        <mask id="mask-4" maskContentUnits="userSpaceOnUse" maskUnits="objectBoundingBox" x="-1.2" y="-1.2" width="20.0805126" height="11.7025341">
            <rect x="-0.455633789" y="-1.2" width="20.0805126" height="11.7025341" fill="white"></rect>
            <use xlink:href="#path-3" fill="black"></use>
        </mask>
        <polygon id="path-5" points="9.5846225 0 0.744366211 7.69864889 1.96371191 9.30253408 9.5846225 2.5662163 17.2055331 9.30253408 18.4248788 7.69864889"></polygon>
        <mask id="mask-6" maskContentUnits="userSpaceOnUse" maskUnits="objectBoundingBox" x="-1.2" y="-1.2" width="20.0805126" height="11.7025341">
            <rect x="-0.455633789" y="-1.2" width="20.0805126" height="11.7025341" fill="white"></rect>
            <use xlink:href="#path-5" fill="black"></use>
        </mask>
    </defs>
    <g id="Symbols" stroke="none" stroke-width="1" fill="none" fill-rule="evenodd" stroke-linecap="round" opacity="0.649661847" stroke-linejoin="round">
        <g id="textura" stroke="#CFECE6">
            <g transform="translate(8.000000, 8.000000)">
                <g id="textura/sobre" transform="translate(40.000000, 1.000000)">
                    <g id="icons/sobre" transform="translate(0.500000, 1.000000)">
                        <path d="M14.56,7.84 L21.28,7.84" id="Stroke-42"></path>
                        <path d="M14.56,12.32 L21.28,12.32" id="Stroke-43"></path>
                        <path d="M11.2,16.81456 L16.80224,16.8" id="Stroke-44"></path>
                        <path d="M10.08,6.72 L8.4,6.72 C7.47152,6.72 6.72,7.3472 6.72,8.12 C6.72,8.8928 7.47152,9.52 8.4,9.52 C9.32848,9.52 10.08,10.1472 10.08,10.92 C10.08,11.6928 9.32848,12.32 8.4,12.32 L6.72,12.32" id="Stroke-45"></path>
                        <path d="M7.84,6.72 L7.84,5.6" id="Stroke-47"></path>
                        <path d="M7.84,12.32 L7.84,13.44" id="Stroke-49"></path>
                        <path d="M0,9.08 L0,25.32 C0,26.24848 0.75152,27 1.68,27 L26.32,27 C27.24848,27 28,26.24848 28,25.32 L28,9.08" id="Stroke-51"></path>
                        <path d="M17.31968,2.24 L15.11776,0.5768 C14.73584,0.23968 14.25312,0 13.69984,0 C13.14656,0 12.66384,0.23968 12.28192,0.5768 L10.08,2.24" id="Stroke-53"></path>
                        <path d="M3.36,6.72 L0,9.25792 L12.58208,19.88 C12.964,20.21824 13.44672,20.45792 14,20.45792 C14.55328,20.45792 15.0584,20.21824 15.4392,19.88 L28,9.25792 L24.64,6.72" id="Stroke-55"></path>
                        <path d="M3.36,11.5862069 L3.36,3.70999165 C3.36,2.89757626 4.11152,2.24 5.04,2.24 L22.96,2.24 C23.88848,2.24 24.64,2.89757626 24.64,3.70999165 L24.64,11.5862069" id="Stroke-57"></path>
                    </g>
                </g>
                <g id="textura/sobre" transform="translate(0.000000, 100.000000)">
                    <g id="icons/sobre" transform="translate(0.500000, 1.000000)">
                        <path d="M14.56,7.84 L21.28,7.84" id="Stroke-42"></path>
                        <path d="M14.56,12.32 L21.28,12.32" id="Stroke-43"></path>
                        <path d="M11.2,16.81456 L16.80224,16.8" id="Stroke-44"></path>
                        <path d="M10.08,6.72 L8.4,6.72 C7.47152,6.72 6.72,7.3472 6.72,8.12 C6.72,8.8928 7.47152,9.52 8.4,9.52 C9.32848,9.52 10.08,10.1472 10.08,10.92 C10.08,11.6928 9.32848,12.32 8.4,12.32 L6.72,12.32" id="Stroke-45"></path>
                        <path d="M7.84,6.72 L7.84,5.6" id="Stroke-47"></path>
                        <path d="M7.84,12.32 L7.84,13.44" id="Stroke-49"></path>
                        <path d="M0,9.08 L0,25.32 C0,26.24848 0.75152,27 1.68,27 L26.32,27 C27.24848,27 28,26.24848 28,25.32 L28,9.08" id="Stroke-51"></path>
                        <path d="M17.31968,2.24 L15.11776,0.5768 C14.73584,0.23968 14.25312,0 13.69984,0 C13.14656,0 12.66384,0.23968 12.28192,0.5768 L10.08,2.24" id="Stroke-53"></path>
                        <path d="M3.36,6.72 L0,9.25792 L12.58208,19.88 C12.964,20.21824 13.44672,20.45792 14,20.45792 C14.55328,20.45792 15.0584,20.21824 15.4392,19.88 L28,9.25792 L24.64,6.72" id="Stroke-55"></path>
                        <path d="M3.36,11.5862069 L3.36,3.70999165 C3.36,2.89757626 4.11152,2.24 5.04,2.24 L22.96,2.24 C23.88848,2.24 24.64,2.89757626 24.64,3.70999165 L24.64,11.5862069" id="Stroke-57"></path>
                    </g>
                </g>
                <g id="textura/candado" transform="translate(119.000000, 0.000000)">
                    <g id="icons/candado" transform="translate(0.000000, 1.000000)">
                        <path d="M12.4090909,17.2666667 C12.4090909,16.2362667 11.5538182,15.4 10.5,15.4 C9.44618182,15.4 8.59090909,16.2362667 8.59090909,17.2666667 C8.59090909,18.0068 9.03477273,18.6405333 9.67336364,18.942 L9.22759091,22.8666667 L11.7724091,22.8666667 L11.3266364,18.942 C11.9652273,18.6405333 12.4090909,18.0068 12.4090909,17.2666667 Z" id="Stroke-1313"></path>
                        <path d="M19.0909091,27.5333333 L1.90909091,27.5333333 C1.11777273,27.5333333 0.477272727,26.9061333 0.477272727,26.1333333 L0.477272727,10.7333333 L20.5227273,10.7333333 L20.5227273,26.1333333 C20.5227273,26.9061333 19.8822273,27.5333333 19.0909091,27.5333333 Z" id="Stroke-1315"></path>
                        <path d="M4.29545455,8.86666667 L4.29545455,8.4 C4.29545455,5.05493333 7.07890909,2.33333333 10.5,2.33333333 C13.9210909,2.33333333 16.7045455,5.05493333 16.7045455,8.4 L16.7045455,10.7333333 L18.6136364,10.7333333 L18.6136364,8.4 C18.6136364,4.02546667 14.9739545,0.466666667 10.5,0.466666667 C6.02604545,0.466666667 2.38636364,4.02546667 2.38636364,8.4 L2.38636364,8.86666667 L4.29545455,8.86666667 Z" id="Stroke-1317"></path>
                    </g>
                </g>
                <g id="textura/candado" transform="translate(78.000000, 99.000000)">
                    <g id="icons/candado" transform="translate(0.000000, 1.000000)">
                        <path d="M12.4090909,17.2666667 C12.4090909,16.2362667 11.5538182,15.4 10.5,15.4 C9.44618182,15.4 8.59090909,16.2362667 8.59090909,17.2666667 C8.59090909,18.0068 9.03477273,18.6405333 9.67336364,18.942 L9.22759091,22.8666667 L11.7724091,22.8666667 L11.3266364,18.942 C11.9652273,18.6405333 12.4090909,18.0068 12.4090909,17.2666667 Z" id="Stroke-1313"></path>
                        <path d="M19.0909091,27.5333333 L1.90909091,27.5333333 C1.11777273,27.5333333 0.477272727,26.9061333 0.477272727,26.1333333 L0.477272727,10.7333333 L20.5227273,10.7333333 L20.5227273,26.1333333 C20.5227273,26.9061333 19.8822273,27.5333333 19.0909091,27.5333333 Z" id="Stroke-1315"></path>
                        <path d="M4.29545455,8.86666667 L4.29545455,8.4 C4.29545455,5.05493333 7.07890909,2.33333333 10.5,2.33333333 C13.9210909,2.33333333 16.7045455,5.05493333 16.7045455,8.4 L16.7045455,10.7333333 L18.6136364,10.7333333 L18.6136364,8.4 C18.6136364,4.02546667 14.9739545,0.466666667 10.5,0.466666667 C6.02604545,0.466666667 2.38636364,4.02546667 2.38636364,8.4 L2.38636364,8.86666667 L4.29545455,8.86666667 Z" id="Stroke-1317"></path>
                    </g>
                </g>
                <g id="textura/grafica" transform="translate(189.000000, 0.000000)">
                    <g id="icons/grafica" transform="translate(0.000000, 1.000000)">
                        <polyline id="Stroke-1611-Copy" points="2.6216 24.5283648 8.6216 19.0222469 12.1216 22.025584 18.6216 18.0211346 23.6216 18.0211346 28.6216 13.0155729"></polyline>
                        <polyline id="Stroke-1612-Copy" points="2.6216 18.0211346 8.6216 15.0177976 12.1216 17.0200222 18.6216 9.01112347 23.6216 11.0133482 28.6216 8.01001112"></polyline>
                        <polyline id="Stroke-1613-Copy" points="2.6216 12.0144605 8.1216 12.0144605 12.0946 6.69855395 18.6216 3.00444939 23.6216 4.00556174 28.6216 0.00111234705 28.6216 26.0300334"></polyline>
                        <path d="M2.6216,0.49973147 L2.6216,28.0322581" id="Stroke-1614-Copy"></path>
                        <path d="M0.6216,26.0300334 L29.6216,26.0300334" id="Stroke-1615-Copy"></path>
                    </g>
                </g>
                <g id="textura/grafica" transform="translate(149.000000, 99.000000)">
                    <g id="icons/grafica" transform="translate(0.000000, 1.000000)">
                        <polyline id="Stroke-1611-Copy" points="2.6216 24.5283648 8.6216 19.0222469 12.1216 22.025584 18.6216 18.0211346 23.6216 18.0211346 28.6216 13.0155729"></polyline>
                        <polyline id="Stroke-1612-Copy" points="2.6216 18.0211346 8.6216 15.0177976 12.1216 17.0200222 18.6216 9.01112347 23.6216 11.0133482 28.6216 8.01001112"></polyline>
                        <polyline id="Stroke-1613-Copy" points="2.6216 12.0144605 8.1216 12.0144605 12.0946 6.69855395 18.6216 3.00444939 23.6216 4.00556174 28.6216 0.00111234705 28.6216 26.0300334"></polyline>
                        <path d="M2.6216,0.49973147 L2.6216,28.0322581" id="Stroke-1614-Copy"></path>
                        <path d="M0.6216,26.0300334 L29.6216,26.0300334" id="Stroke-1615-Copy"></path>
                    </g>
                </g>
                <g id="textura/sobre" transform="translate(270.000000, 1.000000)">
                    <g id="icons/sobre" transform="translate(0.500000, 1.000000)">
                        <path d="M14.56,7.84 L21.28,7.84" id="Stroke-42"></path>
                        <path d="M14.56,12.32 L21.28,12.32" id="Stroke-43"></path>
                        <path d="M11.2,16.81456 L16.80224,16.8" id="Stroke-44"></path>
                        <path d="M10.08,6.72 L8.4,6.72 C7.47152,6.72 6.72,7.3472 6.72,8.12 C6.72,8.8928 7.47152,9.52 8.4,9.52 C9.32848,9.52 10.08,10.1472 10.08,10.92 C10.08,11.6928 9.32848,12.32 8.4,12.32 L6.72,12.32" id="Stroke-45"></path>
                        <path d="M7.84,6.72 L7.84,5.6" id="Stroke-47"></path>
                        <path d="M7.84,12.32 L7.84,13.44" id="Stroke-49"></path>
                        <path d="M0,9.08 L0,25.32 C0,26.24848 0.75152,27 1.68,27 L26.32,27 C27.24848,27 28,26.24848 28,25.32 L28,9.08" id="Stroke-51"></path>
                        <path d="M17.31968,2.24 L15.11776,0.5768 C14.73584,0.23968 14.25312,0 13.69984,0 C13.14656,0 12.66384,0.23968 12.28192,0.5768 L10.08,2.24" id="Stroke-53"></path>
                        <path d="M3.36,6.72 L0,9.25792 L12.58208,19.88 C12.964,20.21824 13.44672,20.45792 14,20.45792 C14.55328,20.45792 15.0584,20.21824 15.4392,19.88 L28,9.25792 L24.64,6.72" id="Stroke-55"></path>
                        <path d="M3.36,11.5862069 L3.36,3.70999165 C3.36,2.89757626 4.11152,2.24 5.04,2.24 L22.96,2.24 C23.88848,2.24 24.64,2.89757626 24.64,3.70999165 L24.64,11.5862069" id="Stroke-57"></path>
                    </g>
                </g>
                <g id="textura/sobre" transform="translate(230.000000, 100.000000)">
                    <g id="icons/sobre" transform="translate(0.500000, 1.000000)">
                        <path d="M14.56,7.84 L21.28,7.84" id="Stroke-42"></path>
                        <path d="M14.56,12.32 L21.28,12.32" id="Stroke-43"></path>
                        <path d="M11.2,16.81456 L16.80224,16.8" id="Stroke-44"></path>
                        <path d="M10.08,6.72 L8.4,6.72 C7.47152,6.72 6.72,7.3472 6.72,8.12 C6.72,8.8928 7.47152,9.52 8.4,9.52 C9.32848,9.52 10.08,10.1472 10.08,10.92 C10.08,11.6928 9.32848,12.32 8.4,12.32 L6.72,12.32" id="Stroke-45"></path>
                        <path d="M7.84,6.72 L7.84,5.6" id="Stroke-47"></path>
                        <path d="M7.84,12.32 L7.84,13.44" id="Stroke-49"></path>
                        <path d="M0,9.08 L0,25.32 C0,26.24848 0.75152,27 1.68,27 L26.32,27 C27.24848,27 28,26.24848 28,25.32 L28,9.08" id="Stroke-51"></path>
                        <path d="M17.31968,2.24 L15.11776,0.5768 C14.73584,0.23968 14.25312,0 13.69984,0 C13.14656,0 12.66384,0.23968 12.28192,0.5768 L10.08,2.24" id="Stroke-53"></path>
                        <path d="M3.36,6.72 L0,9.25792 L12.58208,19.88 C12.964,20.21824 13.44672,20.45792 14,20.45792 C14.55328,20.45792 15.0584,20.21824 15.4392,19.88 L28,9.25792 L24.64,6.72" id="Stroke-55"></path>
                        <path d="M3.36,11.5862069 L3.36,3.70999165 C3.36,2.89757626 4.11152,2.24 5.04,2.24 L22.96,2.24 C23.88848,2.24 24.64,2.89757626 24.64,3.70999165 L24.64,11.5862069" id="Stroke-57"></path>
                    </g>
                </g>
                <g id="textura/home" transform="translate(1.000000, 38.000000)">
                    <g id="icons/home" transform="translate(0.500000, 2.000000)">
                        <polyline id="Stroke-1256" stroke-width="1.2" points="3 9.52342258 3 17.0764601 6.833849 17.0764601 6.833849 10.2546018 12.5846225 10.2546018 12.5846225 17.0764601 16.4184715 17.0764601 16.4184715 9.52342258"></polyline>
                        <polyline id="Stroke-1257" stroke-width="1.2" points="16.5558993 5 16.5558993 4.4408921e-16 14 4.4408921e-16 14 2.52504111"></polyline>
                        <use id="Stroke-1258" mask="url(#mask-2)" stroke-width="2.4" xlink:href="#path-1"></use>
                    </g>
                </g>
                <g id="textura/home" transform="translate(118.000000, 132.000000)">
                    <g id="icons/home" transform="translate(0.500000, 2.000000)">
                        <polyline id="Stroke-1256" stroke-width="1.2" points="3 9.52342258 3 17.0764601 6.833849 17.0764601 6.833849 10.2546018 12.5846225 10.2546018 12.5846225 17.0764601 16.4184715 17.0764601 16.4184715 9.52342258"></polyline>
                        <polyline id="Stroke-1257" stroke-width="1.2" points="16.5558993 5 16.5558993 4.4408921e-16 14 4.4408921e-16 14 2.52504111"></polyline>
                        <use id="Stroke-1258" mask="url(#mask-4)" stroke-width="2.4" xlink:href="#path-3"></use>
                    </g>
                </g>
                <g id="textura/huevo" transform="translate(79.000000, 38.000000)">
                    <g id="huevo" transform="translate(1.000000, 1.000000)">
                        <path d="M2.92392,9.38345865 C1.13328,9.97822556 0,11.2709774 0,11.9935038 L0,13.6457143 C0,16.3835188 4.02912,18.6023459 9,18.6023459 C13.97088,18.6023459 18,16.3835188 18,13.6457143 L18,11.9935038 C18,11.2709774 16.86672,9.97822556 15.07536,9.38345865" id="Stroke-1"></path>
                        <path d="M14.91552,11.6903459 C15.0444,11.1107368 15.12,10.4697744 15.12,9.7443609 C15.12,5.16018045 11.83536,0 9,0 C6.14232,0 2.88,5.16018045 2.88,9.7443609 C2.88,10.4524511 2.95272,11.0804211 3.07584,11.649203" id="Stroke-3"></path>
                        <path d="M2.16,11.5488722 C3.87504,12.0505263 6.264,12.3630677 8.91,12.3630677 C11.556,12.3630677 13.94496,12.0505263 15.66,11.5488722" id="Stroke-5"></path>
                        <path d="M10.8,5.77443609 L9.36,5.77443609 C8.56416,5.77443609 7.92,6.25948872 7.92,6.85714286 C7.92,7.45479699 8.56416,7.93984962 9.36,7.93984962 C10.15584,7.93984962 10.8,8.42490226 10.8,9.02255639 C10.8,9.62021053 10.15584,10.1052632 9.36,10.1052632 L7.92,10.1052632" id="Stroke-7"></path>
                        <path d="M9.36,5.70562148 L9.37177734,5.05263158" id="Stroke-9"></path>
                        <path d="M9.36,10.7582531 L9.37177734,10.1052632" id="Stroke-9-Copy"></path>
                    </g>
                </g>
                <g id="textura/huevo" transform="translate(196.000000, 132.000000)">
                    <g id="huevo" transform="translate(1.000000, 1.000000)">
                        <path d="M2.92392,9.38345865 C1.13328,9.97822556 0,11.2709774 0,11.9935038 L0,13.6457143 C0,16.3835188 4.02912,18.6023459 9,18.6023459 C13.97088,18.6023459 18,16.3835188 18,13.6457143 L18,11.9935038 C18,11.2709774 16.86672,9.97822556 15.07536,9.38345865" id="Stroke-1"></path>
                        <path d="M14.91552,11.6903459 C15.0444,11.1107368 15.12,10.4697744 15.12,9.7443609 C15.12,5.16018045 11.83536,0 9,0 C6.14232,0 2.88,5.16018045 2.88,9.7443609 C2.88,10.4524511 2.95272,11.0804211 3.07584,11.649203" id="Stroke-3"></path>
                        <path d="M2.16,11.5488722 C3.87504,12.0505263 6.264,12.3630677 8.91,12.3630677 C11.556,12.3630677 13.94496,12.0505263 15.66,11.5488722" id="Stroke-5"></path>
                        <path d="M10.8,5.77443609 L9.36,5.77443609 C8.56416,5.77443609 7.92,6.25948872 7.92,6.85714286 C7.92,7.45479699 8.56416,7.93984962 9.36,7.93984962 C10.15584,7.93984962 10.8,8.42490226 10.8,9.02255639 C10.8,9.62021053 10.15584,10.1052632 9.36,10.1052632 L7.92,10.1052632" id="Stroke-7"></path>
                        <path d="M9.36,5.70562148 L9.37177734,5.05263158" id="Stroke-9"></path>
                        <path d="M9.36,10.7582531 L9.37177734,10.1052632" id="Stroke-9-Copy"></path>
                    </g>
                </g>
                <g id="textura/avion" transform="translate(157.000000, 38.000000)">
                    <path d="M13.6279801,4.98060569 C13.0230471,5.34252505 12.3348801,5.86050821 11.4252511,6.56874056 L2.82242041,6.56874056 L1.29448157,8.03648336 L7.3779968,9.87580662 C6.2848071,10.8159052 5.1477709,11.6631086 4.20395655,12.5036236 L0.765351004,11.7151299 L-0.0276016892,12.5036236 L1.69801795,14.9188966 L1.69950427,14.9174102 C1.670521,14.9434209 1.63336295,14.9776063 1.605866,15.0021306 C1.25509405,15.3231761 1.24171715,15.8656836 1.5753964,16.1978765 C1.80874893,16.4297427 2.15580507,16.5010862 2.46496001,16.3814372 C4.04492011,15.7690727 8.95721374,13.7863193 12.2709682,11.5835904 C16.2669445,8.92753329 18.2675337,6.93957785 18.9348922,6.27742148 C19.6015075,5.61452194 20.2710955,4.29243868 19.9403889,3.96396156 C19.6104254,3.63548444 16.9565978,2.98670496 13.6279801,4.98060569 Z" id="icons/avion" transform="translate(10.000000, 10.017178) rotate(-11.000000) translate(-10.000000, -10.017178) "></path>
                </g>
                <g id="textura/avion" transform="translate(274.000000, 132.000000)">
                    <path d="M13.6279801,4.98060569 C13.0230471,5.34252505 12.3348801,5.86050821 11.4252511,6.56874056 L2.82242041,6.56874056 L1.29448157,8.03648336 L7.3779968,9.87580662 C6.2848071,10.8159052 5.1477709,11.6631086 4.20395655,12.5036236 L0.765351004,11.7151299 L-0.0276016892,12.5036236 L1.69801795,14.9188966 L1.69950427,14.9174102 C1.670521,14.9434209 1.63336295,14.9776063 1.605866,15.0021306 C1.25509405,15.3231761 1.24171715,15.8656836 1.5753964,16.1978765 C1.80874893,16.4297427 2.15580507,16.5010862 2.46496001,16.3814372 C4.04492011,15.7690727 8.95721374,13.7863193 12.2709682,11.5835904 C16.2669445,8.92753329 18.2675337,6.93957785 18.9348922,6.27742148 C19.6015075,5.61452194 20.2710955,4.29243868 19.9403889,3.96396156 C19.6104254,3.63548444 16.9565978,2.98670496 13.6279801,4.98060569 Z" id="icons/avion" transform="translate(10.000000, 10.017178) rotate(-11.000000) translate(-10.000000, -10.017178) "></path>
                </g>
                <g id="textura/avion" transform="translate(44.000000, 132.000000)">
                    <path d="M13.6279801,4.98060569 C13.0230471,5.34252505 12.3348801,5.86050821 11.4252511,6.56874056 L2.82242041,6.56874056 L1.29448157,8.03648336 L7.3779968,9.87580662 C6.2848071,10.8159052 5.1477709,11.6631086 4.20395655,12.5036236 L0.765351004,11.7151299 L-0.0276016892,12.5036236 L1.69801795,14.9188966 L1.69950427,14.9174102 C1.670521,14.9434209 1.63336295,14.9776063 1.605866,15.0021306 C1.25509405,15.3231761 1.24171715,15.8656836 1.5753964,16.1978765 C1.80874893,16.4297427 2.15580507,16.5010862 2.46496001,16.3814372 C4.04492011,15.7690727 8.95721374,13.7863193 12.2709682,11.5835904 C16.2669445,8.92753329 18.2675337,6.93957785 18.9348922,6.27742148 C19.6015075,5.61452194 20.2710955,4.29243868 19.9403889,3.96396156 C19.6104254,3.63548444 16.9565978,2.98670496 13.6279801,4.98060569 Z" id="icons/avion" transform="translate(10.000000, 10.017178) rotate(-11.000000) translate(-10.000000, -10.017178) "></path>
                </g>
                <g id="textura/home" transform="translate(235.000000, 38.000000)">
                    <g id="icons/home" transform="translate(0.500000, 2.000000)">
                        <polyline id="Stroke-1256" stroke-width="1.2" points="3 9.52342258 3 17.0764601 6.833849 17.0764601 6.833849 10.2546018 12.5846225 10.2546018 12.5846225 17.0764601 16.4184715 17.0764601 16.4184715 9.52342258"></polyline>
                        <polyline id="Stroke-1257" stroke-width="1.2" points="16.5558993 5 16.5558993 4.4408921e-16 14 4.4408921e-16 14 2.52504111"></polyline>
                        <use id="Stroke-1258" mask="url(#mask-6)" stroke-width="2.4" xlink:href="#path-5"></use>
                    </g>
                </g>
                <g id="textura/estaditica" transform="translate(40.000000, 67.000000)">
                    <g id="icons/estaditica" transform="translate(0.606500, 1.051459)">
                        <path d="M26.6471377,19.6211974 L1.70088113,19.6211974 C0.760860825,19.6211974 -1.56319402e-13,18.8897627 -1.56319402e-13,17.9860976 L-1.56319402e-13,0 L28.3480188,0 L28.3480188,17.9860976 C28.3480188,18.8897627 27.587158,19.6211974 26.6471377,19.6211974 Z" id="Stroke-69-Copy" stroke-width="1.2"></path>
                        <path d="M14.7409698,26.7066297 C14.7409698,27.0074881 14.4869715,27.251663 14.1740094,27.251663 C13.8610473,27.251663 13.607049,27.0074881 13.607049,26.7066297 C13.607049,26.4057714 13.8610473,26.1615965 14.1740094,26.1615965 C14.4869715,26.1615965 14.7409698,26.4057714 14.7409698,26.7066297 Z" id="Stroke-71-Copy" stroke-width="1.2"></path>
                        <path d="M13.607049,26.7066297 L13.607049,19.6211974" id="Stroke-73-Copy" stroke-width="1.2"></path>
                        <polygon id="Stroke-75-Copy" stroke-width="1.2" points="4.53568301 16.3509978 7.93744527 16.3509978 7.93744527 9.81059868 4.53568301 9.81059868"></polygon>
                        <polygon id="Stroke-77-Copy" stroke-width="1.2" points="12.4731283 16.3509978 15.8748905 16.3509978 15.8748905 6.54039912 12.4731283 6.54039912"></polygon>
                        <polygon id="Stroke-78-Copy" stroke-width="1.2" points="23.8123358 3.27019956 20.4876802 3.28328036 20.4105736 16.3509978 23.8123358 16.3509978"></polygon>
                    </g>
                </g>
                <g id="textura/lapiz" transform="translate(115.000000, 67.000000)">
                    <g id="icons/lapiz" transform="translate(2.000000, 1.000000)">
                        <path d="M4.8,3 C4.8,3.3312 4.5312,3.6 4.2,3.6 C3.8688,3.6 3.6,3.3312 3.6,3 C3.6,2.6688 3.8688,2.4 4.2,2.4 C4.5312,2.4 4.8,2.6688 4.8,3 Z" id="Stroke-1702-Copy"></path>
                        <path d="M4.8,3 L4.8,0" id="Stroke-1704-Copy"></path>
                        <path d="M10.8,3 C10.8,3.3312 10.5312,3.6 10.2,3.6 C9.8688,3.6 9.6,3.3312 9.6,3 C9.6,2.6688 9.8688,2.4 10.2,2.4 C10.5312,2.4 10.8,2.6688 10.8,3 Z" id="Stroke-1706-Copy"></path>
                        <path d="M10.8,3 L10.8,0" id="Stroke-1708-Copy"></path>
                        <path d="M16.8,3 C16.8,3.3312 16.5312,3.6 16.2,3.6 C15.8688,3.6 15.6,3.3312 15.6,3 C15.6,2.6688 15.8688,2.4 16.2,2.4 C16.5312,2.4 16.8,2.6688 16.8,3 Z" id="Stroke-1710-Copy"></path>
                        <path d="M16.8,3 L16.8,0" id="Stroke-1712-Copy"></path>
                        <path d="M21.4064941,4.86450195 L25.6016235,9.05963135" id="Stroke-1714-Copy"></path>
                        <polyline id="Stroke-1716-Copy" points="7.42272949 18.8482666 9.12075806 18.8482666 9.68676758 20.2466431 10.8187866 20.9458313 11.3847961 22.3442078"></polyline>
                        <path d="M22.8048706,7.19512939 L9.75335693,20.2466431" id="Stroke-1720-Copy"></path>
                        <path d="M21.6,3.50336 L21.6,1.68 C21.6,0.75264 20.7936,0 19.8,0 L1.8,0 C0.8064,0 0,0.75264 0,1.68 L0,26.32 C0,27.24736 0.8064,28 1.8,28 L19.8,28 C20.7936,28 21.6,27.24736 21.6,26.32 L21.5083008,13.5327148" id="Stroke-1722-Copy"></path>
                        <path d="M11.6178589,22.5772705 L26.3858331,7.97933892 C26.7650728,7.59898052 27,7.07542837 27,6.49594116 C27,5.91645396 26.7650728,5.39290181 26.3858331,5.01254341 L24.9874566,3.61416694 C24.6070982,3.23492725 24.083546,3 23.5040588,3 C22.9245716,3 22.4010195,3.23492725 22.0206611,3.61416694 L7.42272949,18.3821411 L4.62597656,25.3740234 L11.6178589,22.5772705 Z" id="Stroke-1726-Copy"></path>
                    </g>
                </g>
                <g id="textura/lapiz" transform="translate(1.000000, 158.000000)">
                    <g id="icons/lapiz" transform="translate(2.000000, 1.000000)">
                        <path d="M4.8,3 C4.8,3.3312 4.5312,3.6 4.2,3.6 C3.8688,3.6 3.6,3.3312 3.6,3 C3.6,2.6688 3.8688,2.4 4.2,2.4 C4.5312,2.4 4.8,2.6688 4.8,3 Z" id="Stroke-1702-Copy"></path>
                        <path d="M4.8,3 L4.8,0" id="Stroke-1704-Copy"></path>
                        <path d="M10.8,3 C10.8,3.3312 10.5312,3.6 10.2,3.6 C9.8688,3.6 9.6,3.3312 9.6,3 C9.6,2.6688 9.8688,2.4 10.2,2.4 C10.5312,2.4 10.8,2.6688 10.8,3 Z" id="Stroke-1706-Copy"></path>
                        <path d="M10.8,3 L10.8,0" id="Stroke-1708-Copy"></path>
                        <path d="M16.8,3 C16.8,3.3312 16.5312,3.6 16.2,3.6 C15.8688,3.6 15.6,3.3312 15.6,3 C15.6,2.6688 15.8688,2.4 16.2,2.4 C16.5312,2.4 16.8,2.6688 16.8,3 Z" id="Stroke-1710-Copy"></path>
                        <path d="M16.8,3 L16.8,0" id="Stroke-1712-Copy"></path>
                        <path d="M21.4064941,4.86450195 L25.6016235,9.05963135" id="Stroke-1714-Copy"></path>
                        <polyline id="Stroke-1716-Copy" points="7.42272949 18.8482666 9.12075806 18.8482666 9.68676758 20.2466431 10.8187866 20.9458313 11.3847961 22.3442078"></polyline>
                        <path d="M22.8048706,7.19512939 L9.75335693,20.2466431" id="Stroke-1720-Copy"></path>
                        <path d="M21.6,3.50336 L21.6,1.68 C21.6,0.75264 20.7936,0 19.8,0 L1.8,0 C0.8064,0 0,0.75264 0,1.68 L0,26.32 C0,27.24736 0.8064,28 1.8,28 L19.8,28 C20.7936,28 21.6,27.24736 21.6,26.32 L21.5083008,13.5327148" id="Stroke-1722-Copy"></path>
                        <path d="M11.6178589,22.5772705 L26.3858331,7.97933892 C26.7650728,7.59898052 27,7.07542837 27,6.49594116 C27,5.91645396 26.7650728,5.39290181 26.3858331,5.01254341 L24.9874566,3.61416694 C24.6070982,3.23492725 24.083546,3 23.5040588,3 C22.9245716,3 22.4010195,3.23492725 22.0206611,3.61416694 L7.42272949,18.3821411 L4.62597656,25.3740234 L11.6178589,22.5772705 Z" id="Stroke-1726-Copy"></path>
                    </g>
                </g>
                <g id="textura/lapiz" transform="translate(232.000000, 158.000000)">
                    <g id="icons/lapiz" transform="translate(2.000000, 1.000000)">
                        <path d="M4.8,3 C4.8,3.3312 4.5312,3.6 4.2,3.6 C3.8688,3.6 3.6,3.3312 3.6,3 C3.6,2.6688 3.8688,2.4 4.2,2.4 C4.5312,2.4 4.8,2.6688 4.8,3 Z" id="Stroke-1702-Copy"></path>
                        <path d="M4.8,3 L4.8,0" id="Stroke-1704-Copy"></path>
                        <path d="M10.8,3 C10.8,3.3312 10.5312,3.6 10.2,3.6 C9.8688,3.6 9.6,3.3312 9.6,3 C9.6,2.6688 9.8688,2.4 10.2,2.4 C10.5312,2.4 10.8,2.6688 10.8,3 Z" id="Stroke-1706-Copy"></path>
                        <path d="M10.8,3 L10.8,0" id="Stroke-1708-Copy"></path>
                        <path d="M16.8,3 C16.8,3.3312 16.5312,3.6 16.2,3.6 C15.8688,3.6 15.6,3.3312 15.6,3 C15.6,2.6688 15.8688,2.4 16.2,2.4 C16.5312,2.4 16.8,2.6688 16.8,3 Z" id="Stroke-1710-Copy"></path>
                        <path d="M16.8,3 L16.8,0" id="Stroke-1712-Copy"></path>
                        <path d="M21.4064941,4.86450195 L25.6016235,9.05963135" id="Stroke-1714-Copy"></path>
                        <polyline id="Stroke-1716-Copy" points="7.42272949 18.8482666 9.12075806 18.8482666 9.68676758 20.2466431 10.8187866 20.9458313 11.3847961 22.3442078"></polyline>
                        <path d="M22.8048706,7.19512939 L9.75335693,20.2466431" id="Stroke-1720-Copy"></path>
                        <path d="M21.6,3.50336 L21.6,1.68 C21.6,0.75264 20.7936,0 19.8,0 L1.8,0 C0.8064,0 0,0.75264 0,1.68 L0,26.32 C0,27.24736 0.8064,28 1.8,28 L19.8,28 C20.7936,28 21.6,27.24736 21.6,26.32 L21.5083008,13.5327148" id="Stroke-1722-Copy"></path>
                        <path d="M11.6178589,22.5772705 L26.3858331,7.97933892 C26.7650728,7.59898052 27,7.07542837 27,6.49594116 C27,5.91645396 26.7650728,5.39290181 26.3858331,5.01254341 L24.9874566,3.61416694 C24.6070982,3.23492725 24.083546,3 23.5040588,3 C22.9245716,3 22.4010195,3.23492725 22.0206611,3.61416694 L7.42272949,18.3821411 L4.62597656,25.3740234 L11.6178589,22.5772705 Z" id="Stroke-1726-Copy"></path>
                    </g>
                </g>
                <g id="textura/dinero" transform="translate(190.000000, 69.000000)">
                    <g id="icons/dinero-copy" transform="translate(0.500000, 1.000000)">
                        <path d="M31.2931034,25 L1.70689655,25 C0.764689655,25 0,24.2011905 0,23.2142857 L0,1.78571429 C0,0.798809524 0.764689655,0 1.70689655,0 L31.2931034,0 C32.2353103,0 33,0.798809524 33,1.78571429 L33,23.2142857 C33,24.2011905 32.2353103,25 31.2931034,25 Z" id="Stroke-91-Copy"></path>
                        <path d="M30.7241379,17.8571429 L30.7241379,7.14285714 C28.2104483,7.14285714 26.1724138,5.01071429 26.1724138,2.38095238 L6.82758621,2.38095238 C6.82758621,5.01071429 4.78955172,7.14285714 2.27586207,7.14285714 L2.27586207,17.8571429 C4.78955172,17.8571429 6.82758621,19.9892857 6.82758621,22.6190476 L26.1724138,22.6190476 C26.1724138,19.9892857 28.2104483,17.8571429 30.7241379,17.8571429 Z" id="Stroke-93-Copy"></path>
                        <path d="M22.7586207,12.5 C22.7586207,16.1166667 19.9558966,19.047619 16.5,19.047619 C13.0429655,19.047619 10.2413793,16.1166667 10.2413793,12.5 C10.2413793,8.88333333 13.0429655,5.95238095 16.5,5.95238095 C19.9558966,5.95238095 22.7586207,8.88333333 22.7586207,12.5 Z" id="Stroke-95-Copy"></path>
                    </g>
                </g>
                <g id="textura/dinero" transform="translate(76.000000, 160.000000)">
                    <g id="icons/dinero-copy" transform="translate(0.500000, 1.000000)">
                        <path d="M31.2931034,25 L1.70689655,25 C0.764689655,25 0,24.2011905 0,23.2142857 L0,1.78571429 C0,0.798809524 0.764689655,0 1.70689655,0 L31.2931034,0 C32.2353103,0 33,0.798809524 33,1.78571429 L33,23.2142857 C33,24.2011905 32.2353103,25 31.2931034,25 Z" id="Stroke-91-Copy"></path>
                        <path d="M30.7241379,17.8571429 L30.7241379,7.14285714 C28.2104483,7.14285714 26.1724138,5.01071429 26.1724138,2.38095238 L6.82758621,2.38095238 C6.82758621,5.01071429 4.78955172,7.14285714 2.27586207,7.14285714 L2.27586207,17.8571429 C4.78955172,17.8571429 6.82758621,19.9892857 6.82758621,22.6190476 L26.1724138,22.6190476 C26.1724138,19.9892857 28.2104483,17.8571429 30.7241379,17.8571429 Z" id="Stroke-93-Copy"></path>
                        <path d="M22.7586207,12.5 C22.7586207,16.1166667 19.9558966,19.047619 16.5,19.047619 C13.0429655,19.047619 10.2413793,16.1166667 10.2413793,12.5 C10.2413793,8.88333333 13.0429655,5.95238095 16.5,5.95238095 C19.9558966,5.95238095 22.7586207,8.88333333 22.7586207,12.5 Z" id="Stroke-95-Copy"></path>
                    </g>
                </g>
                <g id="textura/estaditica" transform="translate(269.000000, 67.000000)">
                    <g id="icons/estaditica" transform="translate(0.606500, 1.051459)">
                        <path d="M26.6471377,19.6211974 L1.70088113,19.6211974 C0.760860825,19.6211974 -1.56319402e-13,18.8897627 -1.56319402e-13,17.9860976 L-1.56319402e-13,0 L28.3480188,0 L28.3480188,17.9860976 C28.3480188,18.8897627 27.587158,19.6211974 26.6471377,19.6211974 Z" id="Stroke-69-Copy" stroke-width="1.2"></path>
                        <path d="M14.7409698,26.7066297 C14.7409698,27.0074881 14.4869715,27.251663 14.1740094,27.251663 C13.8610473,27.251663 13.607049,27.0074881 13.607049,26.7066297 C13.607049,26.4057714 13.8610473,26.1615965 14.1740094,26.1615965 C14.4869715,26.1615965 14.7409698,26.4057714 14.7409698,26.7066297 Z" id="Stroke-71-Copy" stroke-width="1.2"></path>
                        <path d="M13.607049,26.7066297 L13.607049,19.6211974" id="Stroke-73-Copy" stroke-width="1.2"></path>
                        <polygon id="Stroke-75-Copy" stroke-width="1.2" points="4.53568301 16.3509978 7.93744527 16.3509978 7.93744527 9.81059868 4.53568301 9.81059868"></polygon>
                        <polygon id="Stroke-77-Copy" stroke-width="1.2" points="12.4731283 16.3509978 15.8748905 16.3509978 15.8748905 6.54039912 12.4731283 6.54039912"></polygon>
                        <polygon id="Stroke-78-Copy" stroke-width="1.2" points="23.8123358 3.27019956 20.4876802 3.28328036 20.4105736 16.3509978 23.8123358 16.3509978"></polygon>
                    </g>
                </g>
                <g id="textura/estaditica" transform="translate(155.000000, 158.000000)">
                    <g id="icons/estaditica" transform="translate(0.606500, 1.051459)">
                        <path d="M26.6471377,19.6211974 L1.70088113,19.6211974 C0.760860825,19.6211974 -1.56319402e-13,18.8897627 -1.56319402e-13,17.9860976 L-1.56319402e-13,0 L28.3480188,0 L28.3480188,17.9860976 C28.3480188,18.8897627 27.587158,19.6211974 26.6471377,19.6211974 Z" id="Stroke-69-Copy" stroke-width="1.2"></path>
                        <path d="M14.7409698,26.7066297 C14.7409698,27.0074881 14.4869715,27.251663 14.1740094,27.251663 C13.8610473,27.251663 13.607049,27.0074881 13.607049,26.7066297 C13.607049,26.4057714 13.8610473,26.1615965 14.1740094,26.1615965 C14.4869715,26.1615965 14.7409698,26.4057714 14.7409698,26.7066297 Z" id="Stroke-71-Copy" stroke-width="1.2"></path>
                        <path d="M13.607049,26.7066297 L13.607049,19.6211974" id="Stroke-73-Copy" stroke-width="1.2"></path>
                        <polygon id="Stroke-75-Copy" stroke-width="1.2" points="4.53568301 16.3509978 7.93744527 16.3509978 7.93744527 9.81059868 4.53568301 9.81059868"></polygon>
                        <polygon id="Stroke-77-Copy" stroke-width="1.2" points="12.4731283 16.3509978 15.8748905 16.3509978 15.8748905 6.54039912 12.4731283 6.54039912"></polygon>
                        <polygon id="Stroke-78-Copy" stroke-width="1.2" points="23.8123358 3.27019956 20.4876802 3.28328036 20.4105736 16.3509978 23.8123358 16.3509978"></polygon>
                    </g>
                </g>
            </g>
        </g>
    </g>
</svg>